<svg xmlns="http://www.w3.org/2000/svg" version="1.1" viewBox="0 0 100.0 100.0" fill="currentColor">
 <path d="m44 39.5h12c0.82812 0 1.5-0.67188 1.5-1.5v-12c0-0.82812-0.67188-1.5-1.5-1.5h-12c-0.82812 0-1.5 0.67188-1.5 1.5v12c0 0.82812 0.67188 1.5 1.5 1.5zm1.5-12h9v9h-9zm-17.5 3c-0.82812 0-1.5 0.67188-1.5 1.5s0.67188 1.5 1.5 1.5h6.5v5h-2.5c-0.82812 0-1.5 0.67188-1.5 1.5s0.67188 1.5 1.5 1.5h2.5v2.4102c0 1.9805 1.6094 3.5898 3.5898 3.5898h2.4102v2.5c0 0.82812 0.67188 1.5 1.5 1.5s1.5-0.67188 1.5-1.5v-2.5h5v6.5c0 0.82812 0.67188 1.5 1.5 1.5s1.5-0.67188 1.5-1.5v-6.5h5v2.5c0 0.82812 0.67188 1.5 1.5 1.5s1.5-0.67188 1.5-1.5v-2.5h2.4102c1.9805 0 3.5898-1.6094 3.5898-3.5898v-2.4102h2.5c0.82812 0 1.5-0.67188 1.5-1.5s-0.67188-1.5-1.5-1.5h-2.5v-5h6.5c0.82812 0 1.5-0.67188 1.5-1.5s-0.67188-1.5-1.5-1.5h-6.5v-5h2.5c0.82812 0 1.5-0.67188 1.5-1.5s-0.67188-1.5-1.5-1.5h-2.5v-2.4102c0-1.9805-1.6094-3.5898-3.5898-3.5898h-2.4102v-2.5c0-0.82812-0.67188-1.5-1.5-1.5s-1.5 0.67188-1.5 1.5v2.5h-5v-6.5c0-0.82812-0.67188-1.5-1.5-1.5s-1.5 0.67188-1.5 1.5v6.5h-5v-2.5c0-0.82812-0.67188-1.5-1.5-1.5s-1.5 0.67188-1.5 1.5v2.5h-2.4102c-1.9805 0-3.5898 1.6094-3.5898 3.5898v2.4102h-2.5c-0.82812 0-1.5 0.67188-1.5 1.5s0.67188 1.5 1.5 1.5h2.5v5zm9.5-10.41c0-0.32031 0.26172-0.58984 0.58984-0.58984h23.828c0.32031 0 0.58984 0.26172 0.58984 0.58984v23.828c0 0.32031-0.26172 0.58984-0.58984 0.58984l-23.828 0.003907c-0.32031 0-0.58984-0.26172-0.58984-0.58984zm54-2.0898v68c0 0.82812-0.67188 1.5-1.5 1.5h-27.531c-2.1914 0-4.1484 1.2109-5.1289 3.1719-0.25 0.51172-0.76953 0.82812-1.3398 0.82812h-12c-0.57031 0-1.0898-0.32031-1.3398-0.82812-0.98047-1.9609-2.9414-3.1719-5.1289-3.1719h-27.531c-0.82812 0-1.5-0.67188-1.5-1.5v-68c0-0.82812 0.67188-1.5 1.5-1.5h16c0.82812 0 1.5 0.67188 1.5 1.5s-0.67188 1.5-1.5 1.5h-14.5v65h26.031c3.0117 0 5.7383 1.5117 7.3398 4h3.6289v-26.5c0-0.82812 0.67188-1.5 1.5-1.5s1.5 0.67188 1.5 1.5v26.5h3.6289c1.6016-2.4883 4.3281-4 7.3398-4h26.031v-65h-14.5c-0.82812 0-1.5-0.67188-1.5-1.5s0.67188-1.5 1.5-1.5h16c0.82812 0 1.5 0.67188 1.5 1.5zm-75 28c0-0.82812 0.67188-1.5 1.5-1.5h8c0.82812 0 1.5 0.67188 1.5 1.5s-0.67188 1.5-1.5 1.5h-8c-0.82812 0-1.5-0.67188-1.5-1.5zm27 14c0 0.82812-0.67188 1.5-1.5 1.5h-24c-0.82812 0-1.5-0.67188-1.5-1.5s0.67188-1.5 1.5-1.5h24c0.82812 0 1.5 0.67188 1.5 1.5zm0 14c0 0.82812-0.67188 1.5-1.5 1.5h-24c-0.82812 0-1.5-0.67188-1.5-1.5s0.67188-1.5 1.5-1.5h24c0.82812 0 1.5 0.67188 1.5 1.5zm30.5-29.5h8c0.82812 0 1.5 0.67188 1.5 1.5s-0.67188 1.5-1.5 1.5h-8c-0.82812 0-1.5-0.67188-1.5-1.5s0.67188-1.5 1.5-1.5zm-57.5-12.5c0-0.82812 0.67188-1.5 1.5-1.5h2c0.82812 0 1.5 0.67188 1.5 1.5s-0.67188 1.5-1.5 1.5h-2c-0.82812 0-1.5-0.67188-1.5-1.5zm63.5 1.5c-0.82812 0-1.5-0.67188-1.5-1.5s0.67188-1.5 1.5-1.5h2c0.82812 0 1.5 0.67188 1.5 1.5s-0.67188 1.5-1.5 1.5zm3.5 26.5c0 0.82812-0.67188 1.5-1.5 1.5h-24c-0.82812 0-1.5-0.67188-1.5-1.5s0.67188-1.5 1.5-1.5h24c0.82812 0 1.5 0.67188 1.5 1.5zm0 14c0 0.82812-0.67188 1.5-1.5 1.5h-24c-0.82812 0-1.5-0.67188-1.5-1.5s0.67188-1.5 1.5-1.5h24c0.82812 0 1.5 0.67188 1.5 1.5z"/>
</svg>