<svg xmlns="http://www.w3.org/2000/svg" version="1.1" viewBox="0 0 100.0 100.0" fill="currentColor">
 <path d="m82.801 40.422c-2.0312-2.0312-5.3398-2.0312-7.3789 0l-8.4609 8.4609v-14.531c0-0.03125-0.011719-0.058593-0.019532-0.089843-0.011718-0.078125-0.019531-0.16016-0.050781-0.23047-0.011719-0.039062-0.019531-0.078125-0.039063-0.12109-0.050781-0.10938-0.10937-0.19922-0.19922-0.28906l-17.699-18.051s-0.011719 0-0.011719-0.011718c0 0-0.011718-0.011719-0.019531-0.011719-0.078125-0.078125-0.17969-0.14062-0.28125-0.19141-0.03125-0.019531-0.070313-0.03125-0.10938-0.039063-0.078125-0.03125-0.17188-0.039062-0.25-0.050781-0.03125 0-0.050781-0.019531-0.078125-0.019531l-31.941 0.003906c-0.57812 0-1.0391 0.46875-1.0391 1.0391v67.43c0 0.57812 0.46875 1.0391 1.0391 1.0391h49.66c0.57812 0 1.0391-0.46875 1.0391-1.0391v-19.168l10.898-10.898 2.4805 2.4805-9.6484 9.6484c-0.41016 0.41016-0.41016 1.0703 0 1.4688 0.19922 0.19922 0.46875 0.30859 0.73828 0.30859 0.26953 0 0.53125-0.10156 0.73828-0.30859l10.379-10.379c0.19922-0.19922 0.30859-0.46094 0.30859-0.73828 0-0.28125-0.10938-0.53906-0.30859-0.73828l-3.2188-3.2188 3.9219-3.9219c0.98828-0.98828 1.5312-2.3008 1.5312-3.6914s-0.53906-2.6992-1.5312-3.6914zm-33.551-21.582 14.191 14.461h-14.191zm15.629 63.832h-47.578v-65.344h29.871v17.02c0 0.57812 0.46875 1.0391 1.0391 1.0391h16.672v15.578l-8.8398 8.8398-33.023 0.003906c-0.57812 0-1.0391 0.46875-1.0391 1.0391 0 0.57031 0.46875 1.0391 1.0391 1.0391h30.93l-4.7891 4.7891c-0.050781 0.050781-0.070312 0.10938-0.10938 0.16016-0.039062 0.058593-0.089843 0.10937-0.12109 0.17969l-0.011719 0.011719-4.0391 10.398c-0.14844 0.37891-0.058594 0.82031 0.23047 1.1094 0.19922 0.19922 0.46094 0.30859 0.73828 0.30859 0.12891 0 0.25-0.019531 0.37891-0.070312l10.398-4.0391h0.011719c0.058593-0.019531 0.10938-0.070313 0.16016-0.10156 0.058594-0.039062 0.12891-0.070312 0.17969-0.12109h0.011719l7.8789-7.8789 0.003906 16.039zm-14.59-13.391 4.1094 4.1016-6.7109 2.6094zm5.9727 3.0195-4.8906-4.8906 5.75-5.75c0.078125-0.058594 0.14844-0.12891 0.21094-0.21094l14.168-14.168 4.8906 4.8906zm25.527-25.52-3.9219 3.9219-4.8906-4.8906 3.9219-3.9219c1.2188-1.2188 3.2109-1.2188 4.4297 0l0.46094 0.46094c0.58984 0.58984 0.92188 1.3789 0.92188 2.2188-0.011719 0.82813-0.33203 1.6211-0.92188 2.2109z"/>
 <path d="m23.02 41.52h18.469c0.57812 0 1.0391-0.46875 1.0391-1.0391 0-0.57812-0.46875-1.0391-1.0391-1.0391h-18.469c-0.57812 0-1.0391 0.46875-1.0391 1.0391 0 0.57031 0.46875 1.0391 1.0391 1.0391z"/>
 <path d="m23.02 51.57h36.109c0.57812 0 1.0391-0.46875 1.0391-1.0391 0-0.57812-0.46875-1.0391-1.0391-1.0391l-36.109-0.003907c-0.57812 0-1.0391 0.46875-1.0391 1.0391 0 0.57422 0.46875 1.043 1.0391 1.043z"/>
 <path d="m39.77 69.852h-16.75c-0.57812 0-1.0391 0.46875-1.0391 1.0391s0.46875 1.0391 1.0391 1.0391h16.738c0.57813 0 1.0391-0.46875 1.0391-1.0391 0.003906-0.57031-0.45703-1.0391-1.0273-1.0391z"/>
</svg>