<svg xmlns="http://www.w3.org/2000/svg" version="1.1" viewBox="0.0 0.0 100.0 100.0" fill="currentColor">
 <path d="m79.398 33.359c-0.85156-1.5-2.4297-2.3203-4.1602-2.1484l-7.2617 0.71875c-0.10156 0.17969-0.19141 0.35937-0.23828 0.55859l-0.66016 2.2383 8.4297-0.82812h0.21875l-35.859 20.352-21.781-11.75c-0.96094-0.51953-0.85938-1.4492-0.80859-1.7188 0.050781-0.26953 0.32031-1.1719 1.4102-1.2695l42.391-4.1914-0.78125-2.6406-41.891 4.1406c-1.9219 0.19141-3.4102 1.5391-3.7891 3.4297-0.37891 1.8906 0.46875 3.7109 2.1719 4.6211l21.691 11.711-1.0703 24.629c-0.078125 1.9297 1.0391 3.5898 2.8594 4.2305 0.48828 0.17188 0.98828 0.26172 1.4688 0.26172 1.3203 0 2.5703-0.62109 3.4102-1.75l33.941-45.91c1.0195-1.3789 1.1289-3.1719 0.28125-4.6719zm-2.4492 3.0625-33.941 45.91c-0.64844 0.87891-1.5508 0.64844-1.8086 0.55859-0.26172-0.089844-1.1094-0.48047-1.0586-1.5703l1.0703-24.719 35.859-20.352c-0.03125 0.058594-0.070312 0.12109-0.10937 0.19141z"/>
 <path d="m65.141 18.648 0.96875 3.2812c0.41016 1.4102 1.5195 2.5117 2.9219 2.9219l3.2812 0.96875c1.1406 0.33984 1.1406 1.9492 0 2.2891l-3.2812 0.96875c-1.4102 0.41016-2.5117 1.5195-2.9219 2.9219l-0.96875 3.2812c-0.33984 1.1406-1.9492 1.1406-2.2891 0l-0.96875-3.2812c-0.41016-1.4102-1.5195-2.5117-2.9219-2.9219l-3.2812-0.96875c-1.1406-0.33984-1.1406-1.9492 0-2.2891l3.2812-0.96875c1.4102-0.41016 2.5117-1.5195 2.9219-2.9219l0.96875-3.2812c0.33984-1.1406 1.9492-1.1406 2.2891 0z"/>
 <path d="m77.449 16.191 0.55859 1.8984c0.23828 0.80859 0.87891 1.4492 1.6914 1.6914l1.8984 0.55859c0.66016 0.19141 0.66016 1.1289 0 1.3281l-1.8984 0.55859c-0.80859 0.23828-1.4492 0.87891-1.6914 1.6914l-0.55859 1.8984c-0.19141 0.66016-1.1289 0.66016-1.3281 0l-0.55859-1.8984c-0.23828-0.80859-0.87891-1.4492-1.6914-1.6914l-1.8984-0.55859c-0.66016-0.19141-0.66016-1.1289 0-1.3281l1.8984-0.55859c0.80859-0.23828 1.4492-0.87891 1.6914-1.6914l0.55859-1.8984c0.19141-0.66016 1.1289-0.66016 1.3281 0z"/>
</svg>