<svg xmlns="http://www.w3.org/2000/svg" viewBox="0 0 48 48" x="0px" y="0px" fill="currentColor"><g><path d="M32,17H29V10a1.78748,1.78748,0,0,0-.0658-.32629.94815.94815,0,0,0-.22784-.38141L20.70789,1.29382A1.13925,1.13925,0,0,0,20,1L3.44434,1A2.49948,2.49948,0,0,0,1,3.54541V34.4541A2.49992,2.49992,0,0,0,3.44434,37H6.76947L3.08105,45.60645a.99968.99968,0,1,0,1.8379.7871L8.94476,37h8.11048l4.02581,9.39355a.99967.99967,0,1,0,1.83788-.78711L19.23053,37H23a32.13688,32.13688,0,0,0,.07194,3.35674c.03263.06625.05962.13371.096.19795l4,6a1.00692,1.00692,0,0,0,1.66406,0l4-6A1.20082,1.20082,0,0,0,33,40l0-18V18A.99974.99974,0,0,0,32,17Zm-7,6h6V39H25Zm6-2H25V19h6ZM21,4.41406,25.58594,9H21ZM9.80188,35l1.00946-2.35541a6.975,6.975,0,0,0,4.37732,0L16.19812,35ZM8,26a4.98958,4.98958,0,1,1,8.16229,3.84052L13.919,24.606a1.00018,1.00018,0,0,0-1.83788,0L9.83771,29.84052A4.96973,4.96973,0,0,1,8,26Zm5,1.53778,1.38916,3.24139a4.59994,4.59994,0,0,1-2.77832,0ZM18.37341,35l-1.39264-3.24957A7.01374,7.01374,0,0,0,14,19.0799V16a1,1,0,0,0-2,0v3.0799A7.01372,7.01372,0,0,0,9.01923,31.75043L7.62659,35H3.44434A.50966.50966,0,0,1,3,34.4541V3.54541A.50948.50948,0,0,1,3.44434,3H19v7a.99974.99974,0,0,0,1,1h7v6H24a.99974.99974,0,0,0-1,1V35ZM28,44.19727,25.86816,41h4.26368ZM46,1H36a.99974.99974,0,0,0-1,1V46a.99943.99943,0,0,0,1,1H46a.99943.99943,0,0,0,1-1V2A.99974.99974,0,0,0,46,1ZM45,45H37V43h1a1,1,0,0,0,0-2H37V39h1a1,1,0,0,0,0-2H37V35h1a1,1,0,0,0,0-2H37V31h1a1,1,0,0,0,0-2H37V27h1a1,1,0,0,0,0-2H37V23h1a1,1,0,0,0,0-2H37V19h1a1,1,0,0,0,0-2H37V15h1a1,1,0,0,0,0-2H37V11h1a1,1,0,0,0,0-2H37V7h1a1,1,0,0,0,0-2H37V3h8ZM16,6a.99974.99974,0,0,1-1,1H6A1,1,0,0,1,6,5h9A.99974.99974,0,0,1,16,6Zm0,4a.99974.99974,0,0,1-1,1H6A1,1,0,0,1,6,9h9A.99974.99974,0,0,1,16,10Z"/></g></svg>