<svg width="20" height="20" viewBox="0 0 20 20" fill="none" xmlns="http://www.w3.org/2000/svg">
<path d="M10 0C15.523 0 20 4.1047 20 9.16842C20 14.2321 15.523 18.3368 10 18.3368C4.477 18.3368 0 14.2321 0 9.16842C0 4.1047 4.477 0 10 0ZM10 1.83368C7.87827 1.83368 5.84344 2.60645 4.34315 3.98198C2.84285 5.35751 2 7.22313 2 9.16842C2 11.1137 2.84285 12.9793 4.34315 14.3549C5.84344 15.7304 7.87827 16.5032 10 16.5032C12.1217 16.5032 14.1566 15.7304 15.6569 14.3549C17.1571 12.9793 18 11.1137 18 9.16842C18 7.22313 17.1571 5.35751 15.6569 3.98198C14.1566 2.60645 12.1217 1.83368 10 1.83368ZM14 8.25158C14.2549 8.25184 14.5 8.34132 14.6854 8.50174C14.8707 8.66216 14.9822 8.88141 14.9972 9.11469C15.0121 9.34798 14.9293 9.57768 14.7657 9.75688C14.6021 9.93608 14.3701 10.0512 14.117 10.0788L14 10.0853H6C5.74512 10.085 5.49997 9.99553 5.31463 9.83511C5.1293 9.67469 5.01777 9.45544 5.00283 9.22216C4.98789 8.98887 5.07067 8.75917 5.23426 8.57997C5.39786 8.40077 5.6299 8.2856 5.883 8.258L6 8.25158H14Z" fill="#21252B"/>
</svg>
