<svg width="24" height="24" viewBox="0 0 24 24" xmlns="http://www.w3.org/2000/svg">
  <style>
    .draw-once {
      fill: none;
      stroke: #800000;
      stroke-linecap: round;
      stroke-linejoin: round;
      stroke-width: 1.5;
      stroke-dasharray: 3000;
      stroke-dashoffset: 3000;
      animation: draw 2s ease-in-out infinite;
    }

    @keyframes draw {
      0% {
        stroke-dashoffset: 3000;
      }
      100% {
        stroke-dashoffset: 0;
      }
    }
  </style>
  <path class="draw-once" d="M6.75702 20.5698C6.32636 20.8231 5.94636 20.8548 5.61702 20.6648C5.28769 20.4748 5.12302 20.1265 5.12302 19.6198L9.22702 17.2448V4.32479L10.88 3.37479V14.3948C10.88 14.7241 10.7977 15.0788 10.633 15.4588C10.481 15.8388 10.2784 16.1935 10.025 16.5228C9.78436 16.8395 9.51836 17.0801 9.22702 17.2448C9.22702 17.5741 9.15102 17.9288 8.99902 18.3088C8.84702 18.6888 8.64436 19.0435 8.39102 19.3728C8.13769 19.6895 7.86536 19.9301 7.57402 20.0948L6.75702 20.5698ZM5.12302 19.6198C4.67969 19.8731 4.29335 19.9048 3.96402 19.7148C3.63469 19.5248 3.47002 19.1765 3.47002 18.6698V7.64979L5.12302 6.69979V19.6198ZM10.88 3.37479L9.22702 4.32479L7.95402 3.58379L9.60702 2.63379L10.88 3.37479ZM9.22702 4.32479V17.2448L7.95402 16.5038V3.58379L9.22702 4.32479ZM9.22702 17.2448L5.12302 19.6198L3.85002 18.8788L7.95402 16.5038L9.22702 17.2448ZM5.12302 19.6198C5.12302 20.1265 5.28769 20.4748 5.61702 20.6648L4.34402 19.9238C4.01469 19.7338 3.85002 19.3855 3.85002 18.8788L5.12302 19.6198ZM5.12302 6.69979L3.47002 7.64979L2.19702 6.90879L3.85002 5.95879L5.12302 6.69979ZM3.47002 7.64979V18.6698C3.47002 19.1765 3.63469 19.5248 3.96402 19.7148L2.69102 18.9738C2.36169 18.7838 2.19702 18.4355 2.19702 17.9288V6.90879L3.47002 7.64979Z"/>
  <path class="draw-once" d="M14.1761 9.54979C14.1761 9.20779 14.2521 8.85312 14.4041 8.48579C14.5561 8.10579 14.7587 7.75746 15.0121 7.44079C15.2654 7.11146 15.5377 6.86446 15.8291 6.69979L21.5861 3.37479V5.27479L15.8291 8.59979V12.7798L21.5861 9.45479V11.3548L15.8291 14.6798V18.8598L21.5861 15.5348V17.4348L15.8291 20.7598C15.3857 21.0131 14.9994 21.0448 14.6701 20.8548C14.3407 20.6648 14.1761 20.3165 14.1761 19.8098V9.54979ZM21.5861 15.5348L15.8291 18.8598L14.5561 18.1188L20.3131 14.7938L21.5861 15.5348ZM21.5861 9.45479L15.8291 12.7798L14.5561 12.0388L20.3131 8.71379L21.5861 9.45479ZM21.5861 3.37479L15.8291 6.69979C15.5377 6.86446 15.2654 7.11146 15.0121 7.44079C14.7587 7.75746 14.5561 8.10579 14.4041 8.48579C14.2521 8.85312 14.1761 9.20779 14.1761 9.54979V19.8098C14.1761 20.3165 14.3407 20.6648 14.6701 20.8548L13.3971 20.1138C13.0677 19.9238 12.9031 19.5755 12.9031 19.0688V8.80879C12.9031 8.46679 12.9791 8.11212 13.1311 7.74479C13.2831 7.36479 13.4857 7.01646 13.7391 6.69979C13.9924 6.37046 14.2647 6.12346 14.5561 5.95879L20.3131 2.63379L21.5861 3.37479Z"/>
</svg>
